<?xml version="1.0" encoding="UTF-8"?>
<svg xmlns="http://www.w3.org/2000/svg" xmlns:xlink="http://www.w3.org/1999/xlink" width="307.401pt" height="226.299pt" viewBox="0 0 307.401 226.299">
<defs>
<g>
<g id="glyph-0-0">
<path d="M 3.4375 0 L 3.4375 -7.890625 L 0.453125 -7.890625 L 0.453125 -10.046875 L 8.9375 -10.046875 L 8.9375 -7.890625 L 5.875 -7.890625 L 5.875 0 Z M 3.4375 0 "/>
</g>
<g id="glyph-0-1">
<path d="M 1.015625 0 L 1.015625 -10.609375 L 3.265625 -10.609375 L 3.265625 -6.0625 L 2.8125 -5.890625 C 2.914062 -6.234375 3.101562 -6.546875 3.375 -6.828125 C 3.644531 -7.117188 3.972656 -7.347656 4.359375 -7.515625 C 4.742188 -7.691406 5.144531 -7.78125 5.5625 -7.78125 C 6.132812 -7.78125 6.617188 -7.660156 7.015625 -7.421875 C 7.410156 -7.191406 7.707031 -6.84375 7.90625 -6.375 C 8.101562 -5.914062 8.203125 -5.347656 8.203125 -4.671875 L 8.203125 0 L 5.890625 0 L 5.890625 -4.484375 C 5.890625 -4.796875 5.847656 -5.050781 5.765625 -5.25 C 5.679688 -5.445312 5.550781 -5.597656 5.375 -5.703125 C 5.195312 -5.804688 4.976562 -5.851562 4.71875 -5.84375 C 4.519531 -5.84375 4.332031 -5.8125 4.15625 -5.75 C 3.988281 -5.6875 3.84375 -5.59375 3.71875 -5.46875 C 3.59375 -5.351562 3.492188 -5.21875 3.421875 -5.0625 C 3.347656 -4.90625 3.3125 -4.738281 3.3125 -4.5625 L 3.3125 0 L 2.1875 0 C 1.914062 0 1.679688 0 1.484375 0 C 1.296875 0 1.140625 0 1.015625 0 Z M 1.015625 0 "/>
</g>
<g id="glyph-0-2">
<path d="M 4.640625 0.140625 C 3.804688 0.140625 3.078125 -0.0234375 2.453125 -0.359375 C 1.828125 -0.703125 1.34375 -1.164062 1 -1.75 C 0.65625 -2.34375 0.484375 -3.015625 0.484375 -3.765625 C 0.484375 -4.347656 0.578125 -4.882812 0.765625 -5.375 C 0.960938 -5.863281 1.234375 -6.285156 1.578125 -6.640625 C 1.921875 -7.003906 2.328125 -7.285156 2.796875 -7.484375 C 3.273438 -7.679688 3.796875 -7.78125 4.359375 -7.78125 C 4.890625 -7.78125 5.378906 -7.679688 5.828125 -7.484375 C 6.273438 -7.296875 6.660156 -7.03125 6.984375 -6.6875 C 7.304688 -6.34375 7.550781 -5.9375 7.71875 -5.46875 C 7.894531 -5 7.972656 -4.488281 7.953125 -3.9375 L 7.953125 -3.3125 L 1.875 -3.3125 L 1.546875 -4.609375 L 6.078125 -4.609375 L 5.84375 -4.328125 L 5.84375 -4.625 C 5.820312 -4.863281 5.742188 -5.070312 5.609375 -5.25 C 5.484375 -5.4375 5.316406 -5.582031 5.109375 -5.6875 C 4.898438 -5.800781 4.660156 -5.859375 4.390625 -5.859375 C 4.015625 -5.859375 3.695312 -5.78125 3.4375 -5.625 C 3.175781 -5.476562 2.976562 -5.265625 2.84375 -4.984375 C 2.707031 -4.703125 2.640625 -4.351562 2.640625 -3.9375 C 2.640625 -3.519531 2.726562 -3.15625 2.90625 -2.84375 C 3.082031 -2.53125 3.335938 -2.285156 3.671875 -2.109375 C 4.015625 -1.941406 4.421875 -1.859375 4.890625 -1.859375 C 5.210938 -1.859375 5.5 -1.90625 5.75 -2 C 6.007812 -2.101562 6.285156 -2.269531 6.578125 -2.5 L 7.65625 -0.96875 C 7.363281 -0.71875 7.046875 -0.507812 6.703125 -0.34375 C 6.367188 -0.175781 6.023438 -0.0546875 5.671875 0.015625 C 5.328125 0.0976562 4.984375 0.140625 4.640625 0.140625 Z M 4.640625 0.140625 "/>
</g>
<g id="glyph-0-3">
<path d="M 4.609375 0.140625 C 3.804688 0.140625 3.097656 -0.03125 2.484375 -0.375 C 1.867188 -0.71875 1.378906 -1.1875 1.015625 -1.78125 C 0.660156 -2.375 0.484375 -3.050781 0.484375 -3.8125 C 0.484375 -4.582031 0.660156 -5.257812 1.015625 -5.84375 C 1.378906 -6.4375 1.867188 -6.90625 2.484375 -7.25 C 3.097656 -7.601562 3.804688 -7.78125 4.609375 -7.78125 C 5.398438 -7.78125 6.101562 -7.601562 6.71875 -7.25 C 7.332031 -6.90625 7.816406 -6.4375 8.171875 -5.84375 C 8.523438 -5.257812 8.703125 -4.582031 8.703125 -3.8125 C 8.703125 -3.050781 8.523438 -2.375 8.171875 -1.78125 C 7.816406 -1.1875 7.332031 -0.71875 6.71875 -0.375 C 6.101562 -0.03125 5.398438 0.140625 4.609375 0.140625 Z M 4.609375 -1.84375 C 4.953125 -1.84375 5.253906 -1.925781 5.515625 -2.09375 C 5.785156 -2.269531 6 -2.503906 6.15625 -2.796875 C 6.3125 -3.085938 6.382812 -3.425781 6.375 -3.8125 C 6.382812 -4.195312 6.3125 -4.539062 6.15625 -4.84375 C 6 -5.144531 5.785156 -5.378906 5.515625 -5.546875 C 5.253906 -5.722656 4.953125 -5.8125 4.609375 -5.8125 C 4.265625 -5.8125 3.953125 -5.722656 3.671875 -5.546875 C 3.398438 -5.378906 3.1875 -5.144531 3.03125 -4.84375 C 2.882812 -4.539062 2.816406 -4.195312 2.828125 -3.8125 C 2.816406 -3.425781 2.882812 -3.085938 3.03125 -2.796875 C 3.1875 -2.503906 3.398438 -2.269531 3.671875 -2.09375 C 3.953125 -1.925781 4.265625 -1.84375 4.609375 -1.84375 Z M 4.609375 -1.84375 "/>
</g>
<g id="glyph-0-4">
<path d="M 1.015625 0 L 1.015625 -7.609375 L 3.203125 -7.609375 L 3.296875 -5.140625 L 2.875 -5.609375 C 2.988281 -6.015625 3.175781 -6.378906 3.4375 -6.703125 C 3.695312 -7.035156 4.003906 -7.296875 4.359375 -7.484375 C 4.710938 -7.679688 5.09375 -7.78125 5.5 -7.78125 C 5.664062 -7.78125 5.820312 -7.765625 5.96875 -7.734375 C 6.125 -7.703125 6.265625 -7.664062 6.390625 -7.625 L 5.75 -5.09375 C 5.644531 -5.15625 5.503906 -5.207031 5.328125 -5.25 C 5.148438 -5.300781 4.96875 -5.328125 4.78125 -5.328125 C 4.5625 -5.328125 4.363281 -5.289062 4.1875 -5.21875 C 4.007812 -5.144531 3.859375 -5.039062 3.734375 -4.90625 C 3.609375 -4.769531 3.507812 -4.609375 3.4375 -4.421875 C 3.363281 -4.242188 3.328125 -4.039062 3.328125 -3.8125 L 3.328125 0 Z M 1.015625 0 "/>
</g>
<g id="glyph-0-5">
<path d="M 1.984375 3.296875 L 3.71875 -0.78125 L 3.75 0.390625 L 0.078125 -7.609375 L 2.671875 -7.609375 L 4.28125 -3.78125 C 4.363281 -3.59375 4.441406 -3.390625 4.515625 -3.171875 C 4.597656 -2.953125 4.65625 -2.738281 4.6875 -2.53125 L 4.375 -2.359375 C 4.425781 -2.492188 4.488281 -2.671875 4.5625 -2.890625 C 4.632812 -3.109375 4.71875 -3.335938 4.8125 -3.578125 L 6.203125 -7.609375 L 8.828125 -7.609375 L 5.578125 0 L 4.265625 3.296875 Z M 1.984375 3.296875 "/>
</g>
<g id="glyph-0-6">
<path d="M 1.265625 0 L 1.265625 -10.046875 L 3.4375 -10.046875 L 7.09375 -4.09375 L 5.53125 -4.109375 L 9.234375 -10.046875 L 11.328125 -10.046875 L 11.328125 0 L 8.96875 0 L 8.96875 -3.125 C 8.96875 -3.988281 8.988281 -4.765625 9.03125 -5.453125 C 9.070312 -6.140625 9.144531 -6.820312 9.25 -7.5 L 9.53125 -6.75 L 6.734375 -2.4375 L 5.796875 -2.4375 L 3.0625 -6.734375 L 3.34375 -7.5 C 3.445312 -6.863281 3.519531 -6.207031 3.5625 -5.53125 C 3.601562 -4.851562 3.625 -4.050781 3.625 -3.125 L 3.625 0 Z M 1.265625 0 "/>
</g>
<g id="glyph-0-7">
<path d="M 1.65625 0 L 1.65625 -9.53125 L 3.9375 -9.53125 L 3.9375 0 Z M 0.296875 -5.609375 L 0.296875 -7.609375 L 5.421875 -7.609375 L 5.421875 -5.609375 Z M 0.296875 -5.609375 "/>
</g>
<g id="glyph-0-8">
<path d="M 3.90625 0.15625 C 3.238281 0.15625 2.648438 -0.0078125 2.140625 -0.34375 C 1.628906 -0.6875 1.222656 -1.15625 0.921875 -1.75 C 0.628906 -2.351562 0.484375 -3.035156 0.484375 -3.796875 C 0.484375 -4.566406 0.628906 -5.25 0.921875 -5.84375 C 1.222656 -6.4375 1.628906 -6.90625 2.140625 -7.25 C 2.660156 -7.601562 3.257812 -7.78125 3.9375 -7.78125 C 4.28125 -7.78125 4.609375 -7.722656 4.921875 -7.609375 C 5.234375 -7.503906 5.519531 -7.359375 5.78125 -7.171875 C 6.039062 -6.992188 6.25 -6.785156 6.40625 -6.546875 C 6.570312 -6.316406 6.671875 -6.082031 6.703125 -5.84375 L 6.15625 -5.703125 L 6.15625 -10.609375 L 8.46875 -10.609375 L 8.46875 0 L 6.328125 0 L 6.203125 -1.734375 L 6.65625 -1.65625 C 6.625 -1.425781 6.53125 -1.195312 6.375 -0.96875 C 6.21875 -0.75 6.015625 -0.554688 5.765625 -0.390625 C 5.515625 -0.222656 5.226562 -0.09375 4.90625 0 C 4.59375 0.101562 4.257812 0.15625 3.90625 0.15625 Z M 4.484375 -1.75 C 4.835938 -1.75 5.144531 -1.832031 5.40625 -2 C 5.664062 -2.175781 5.863281 -2.414062 6 -2.71875 C 6.132812 -3.03125 6.203125 -3.390625 6.203125 -3.796875 C 6.203125 -4.222656 6.132812 -4.585938 6 -4.890625 C 5.863281 -5.191406 5.664062 -5.425781 5.40625 -5.59375 C 5.144531 -5.769531 4.835938 -5.859375 4.484375 -5.859375 C 4.128906 -5.859375 3.828125 -5.769531 3.578125 -5.59375 C 3.328125 -5.425781 3.128906 -5.191406 2.984375 -4.890625 C 2.835938 -4.585938 2.765625 -4.222656 2.765625 -3.796875 C 2.765625 -3.390625 2.835938 -3.03125 2.984375 -2.71875 C 3.128906 -2.414062 3.328125 -2.175781 3.578125 -2 C 3.828125 -1.832031 4.128906 -1.75 4.484375 -1.75 Z M 4.484375 -1.75 "/>
</g>
<g id="glyph-0-9">
<path d="M 1.265625 0 L 1.265625 -10.046875 L 5.46875 -10.046875 C 6.195312 -10.046875 6.867188 -9.921875 7.484375 -9.671875 C 8.097656 -9.429688 8.625 -9.082031 9.0625 -8.625 C 9.507812 -8.175781 9.851562 -7.644531 10.09375 -7.03125 C 10.332031 -6.425781 10.453125 -5.753906 10.453125 -5.015625 C 10.453125 -4.285156 10.332031 -3.609375 10.09375 -2.984375 C 9.851562 -2.367188 9.507812 -1.835938 9.0625 -1.390625 C 8.625 -0.953125 8.097656 -0.609375 7.484375 -0.359375 C 6.867188 -0.117188 6.195312 0 5.46875 0 Z M 3.703125 -1.65625 L 3.375 -2.15625 L 5.390625 -2.15625 C 5.796875 -2.15625 6.15625 -2.222656 6.46875 -2.359375 C 6.78125 -2.492188 7.046875 -2.6875 7.265625 -2.9375 C 7.492188 -3.1875 7.671875 -3.488281 7.796875 -3.84375 C 7.921875 -4.195312 7.984375 -4.585938 7.984375 -5.015625 C 7.984375 -5.453125 7.921875 -5.847656 7.796875 -6.203125 C 7.671875 -6.554688 7.492188 -6.851562 7.265625 -7.09375 C 7.046875 -7.34375 6.78125 -7.535156 6.46875 -7.671875 C 6.15625 -7.816406 5.796875 -7.890625 5.390625 -7.890625 L 3.328125 -7.890625 L 3.703125 -8.34375 Z M 3.703125 -1.65625 "/>
</g>
<g id="glyph-0-10">
<path d="M 3.828125 0.125 C 3.191406 0.125 2.617188 -0.0390625 2.109375 -0.375 C 1.609375 -0.71875 1.207031 -1.1875 0.90625 -1.78125 C 0.613281 -2.382812 0.46875 -3.0625 0.46875 -3.8125 C 0.46875 -4.59375 0.613281 -5.273438 0.90625 -5.859375 C 1.207031 -6.453125 1.613281 -6.921875 2.125 -7.265625 C 2.644531 -7.609375 3.238281 -7.78125 3.90625 -7.78125 C 4.269531 -7.78125 4.597656 -7.722656 4.890625 -7.609375 C 5.191406 -7.503906 5.457031 -7.359375 5.6875 -7.171875 C 5.914062 -6.992188 6.113281 -6.78125 6.28125 -6.53125 C 6.445312 -6.289062 6.566406 -6.03125 6.640625 -5.75 L 6.171875 -5.8125 L 6.171875 -7.609375 L 8.453125 -7.609375 L 8.453125 0 L 6.125 0 L 6.125 -1.84375 L 6.640625 -1.84375 C 6.566406 -1.582031 6.441406 -1.332031 6.265625 -1.09375 C 6.097656 -0.851562 5.890625 -0.640625 5.640625 -0.453125 C 5.390625 -0.273438 5.109375 -0.132812 4.796875 -0.03125 C 4.492188 0.0703125 4.171875 0.125 3.828125 0.125 Z M 4.453125 -1.8125 C 4.804688 -1.8125 5.113281 -1.890625 5.375 -2.046875 C 5.632812 -2.210938 5.835938 -2.445312 5.984375 -2.75 C 6.128906 -3.050781 6.203125 -3.40625 6.203125 -3.8125 C 6.203125 -4.226562 6.128906 -4.582031 5.984375 -4.875 C 5.835938 -5.175781 5.632812 -5.410156 5.375 -5.578125 C 5.113281 -5.753906 4.804688 -5.84375 4.453125 -5.84375 C 4.109375 -5.84375 3.8125 -5.753906 3.5625 -5.578125 C 3.3125 -5.410156 3.113281 -5.175781 2.96875 -4.875 C 2.820312 -4.582031 2.75 -4.226562 2.75 -3.8125 C 2.75 -3.40625 2.820312 -3.050781 2.96875 -2.75 C 3.113281 -2.445312 3.3125 -2.210938 3.5625 -2.046875 C 3.8125 -1.890625 4.109375 -1.8125 4.453125 -1.8125 Z M 4.453125 -1.8125 "/>
</g>
<g id="glyph-1-0">
<path d="M 1.8125 0 L 1.8125 -14.453125 L 8.328125 -14.453125 C 9.242188 -14.453125 10.078125 -14.253906 10.828125 -13.859375 C 11.578125 -13.460938 12.164062 -12.914062 12.59375 -12.21875 C 13.019531 -11.519531 13.234375 -10.734375 13.234375 -9.859375 C 13.234375 -8.941406 13.019531 -8.125 12.59375 -7.40625 C 12.164062 -6.6875 11.582031 -6.117188 10.84375 -5.703125 C 10.101562 -5.285156 9.265625 -5.078125 8.328125 -5.078125 L 5.171875 -5.078125 L 5.171875 0 Z M 9.828125 0 L 6.15625 -6.53125 L 9.75 -7.046875 L 13.84375 0 Z M 5.171875 -7.765625 L 8.015625 -7.765625 C 8.367188 -7.765625 8.679688 -7.84375 8.953125 -8 C 9.222656 -8.15625 9.429688 -8.378906 9.578125 -8.671875 C 9.722656 -8.960938 9.796875 -9.296875 9.796875 -9.671875 C 9.796875 -10.035156 9.710938 -10.359375 9.546875 -10.640625 C 9.378906 -10.929688 9.140625 -11.148438 8.828125 -11.296875 C 8.515625 -11.453125 8.140625 -11.53125 7.703125 -11.53125 L 5.171875 -11.53125 Z M 5.171875 -7.765625 "/>
</g>
<g id="glyph-1-1">
<path d="M 6.6875 0.203125 C 5.476562 0.203125 4.425781 -0.0390625 3.53125 -0.53125 C 2.632812 -1.019531 1.9375 -1.6875 1.4375 -2.53125 C 0.945312 -3.375 0.703125 -4.34375 0.703125 -5.4375 C 0.703125 -6.269531 0.835938 -7.035156 1.109375 -7.734375 C 1.390625 -8.441406 1.773438 -9.050781 2.265625 -9.5625 C 2.765625 -10.082031 3.351562 -10.484375 4.03125 -10.765625 C 4.71875 -11.054688 5.46875 -11.203125 6.28125 -11.203125 C 7.050781 -11.203125 7.753906 -11.0625 8.390625 -10.78125 C 9.035156 -10.507812 9.59375 -10.125 10.0625 -9.625 C 10.53125 -9.125 10.882812 -8.535156 11.125 -7.859375 C 11.375 -7.191406 11.488281 -6.457031 11.46875 -5.65625 L 11.4375 -4.765625 L 2.703125 -4.765625 L 2.234375 -6.625 L 8.765625 -6.625 L 8.40625 -6.234375 L 8.40625 -6.65625 C 8.375 -7 8.265625 -7.300781 8.078125 -7.5625 C 7.898438 -7.832031 7.660156 -8.039062 7.359375 -8.1875 C 7.054688 -8.34375 6.710938 -8.421875 6.328125 -8.421875 C 5.785156 -8.421875 5.320312 -8.3125 4.9375 -8.09375 C 4.5625 -7.882812 4.273438 -7.578125 4.078125 -7.171875 C 3.890625 -6.765625 3.796875 -6.269531 3.796875 -5.6875 C 3.796875 -5.070312 3.921875 -4.539062 4.171875 -4.09375 C 4.429688 -3.644531 4.804688 -3.296875 5.296875 -3.046875 C 5.785156 -2.804688 6.367188 -2.6875 7.046875 -2.6875 C 7.515625 -2.6875 7.929688 -2.753906 8.296875 -2.890625 C 8.660156 -3.023438 9.054688 -3.257812 9.484375 -3.59375 L 11.03125 -1.40625 C 10.601562 -1.03125 10.144531 -0.722656 9.65625 -0.484375 C 9.175781 -0.253906 8.6875 -0.0820312 8.1875 0.03125 C 7.6875 0.144531 7.1875 0.203125 6.6875 0.203125 Z M 6.6875 0.203125 "/>
</g>
<g id="glyph-1-2">
<path d="M 5.171875 0.203125 C 4.085938 0.203125 3.132812 0.0273438 2.3125 -0.3125 C 1.5 -0.65625 0.851562 -1.113281 0.375 -1.6875 L 2.375 -3.421875 C 2.800781 -2.992188 3.28125 -2.679688 3.8125 -2.484375 C 4.351562 -2.285156 4.863281 -2.1875 5.34375 -2.1875 C 5.539062 -2.1875 5.710938 -2.207031 5.859375 -2.25 C 6.015625 -2.289062 6.144531 -2.347656 6.25 -2.421875 C 6.351562 -2.503906 6.429688 -2.59375 6.484375 -2.6875 C 6.535156 -2.789062 6.5625 -2.914062 6.5625 -3.0625 C 6.5625 -3.332031 6.441406 -3.546875 6.203125 -3.703125 C 6.078125 -3.765625 5.867188 -3.84375 5.578125 -3.9375 C 5.285156 -4.039062 4.914062 -4.15625 4.46875 -4.28125 C 3.8125 -4.445312 3.242188 -4.640625 2.765625 -4.859375 C 2.296875 -5.085938 1.910156 -5.351562 1.609375 -5.65625 C 1.335938 -5.945312 1.125 -6.265625 0.96875 -6.609375 C 0.820312 -6.960938 0.75 -7.363281 0.75 -7.8125 C 0.75 -8.320312 0.867188 -8.78125 1.109375 -9.1875 C 1.347656 -9.601562 1.671875 -9.960938 2.078125 -10.265625 C 2.484375 -10.566406 2.953125 -10.796875 3.484375 -10.953125 C 4.015625 -11.117188 4.5625 -11.203125 5.125 -11.203125 C 5.726562 -11.203125 6.304688 -11.128906 6.859375 -10.984375 C 7.410156 -10.847656 7.921875 -10.65625 8.390625 -10.40625 C 8.867188 -10.15625 9.296875 -9.859375 9.671875 -9.515625 L 7.9375 -7.578125 C 7.6875 -7.816406 7.40625 -8.023438 7.09375 -8.203125 C 6.78125 -8.390625 6.457031 -8.535156 6.125 -8.640625 C 5.800781 -8.753906 5.5 -8.8125 5.21875 -8.8125 C 5.019531 -8.8125 4.835938 -8.796875 4.671875 -8.765625 C 4.515625 -8.734375 4.378906 -8.675781 4.265625 -8.59375 C 4.160156 -8.519531 4.082031 -8.429688 4.03125 -8.328125 C 3.976562 -8.234375 3.953125 -8.113281 3.953125 -7.96875 C 3.953125 -7.832031 3.988281 -7.703125 4.0625 -7.578125 C 4.132812 -7.453125 4.238281 -7.347656 4.375 -7.265625 C 4.507812 -7.179688 4.726562 -7.085938 5.03125 -6.984375 C 5.34375 -6.890625 5.757812 -6.765625 6.28125 -6.609375 C 6.925781 -6.429688 7.484375 -6.234375 7.953125 -6.015625 C 8.421875 -5.796875 8.789062 -5.53125 9.0625 -5.21875 C 9.289062 -4.988281 9.457031 -4.71875 9.5625 -4.40625 C 9.675781 -4.101562 9.734375 -3.769531 9.734375 -3.40625 C 9.734375 -2.707031 9.535156 -2.082031 9.140625 -1.53125 C 8.742188 -0.988281 8.203125 -0.5625 7.515625 -0.25 C 6.828125 0.0507812 6.046875 0.203125 5.171875 0.203125 Z M 5.171875 0.203125 "/>
</g>
<g id="glyph-1-3">
<path d="M 5.515625 0.1875 C 4.585938 0.1875 3.765625 -0.0546875 3.046875 -0.546875 C 2.328125 -1.035156 1.753906 -1.707031 1.328125 -2.5625 C 0.898438 -3.425781 0.6875 -4.40625 0.6875 -5.5 C 0.6875 -6.613281 0.898438 -7.597656 1.328125 -8.453125 C 1.753906 -9.304688 2.335938 -9.976562 3.078125 -10.46875 C 3.816406 -10.957031 4.664062 -11.203125 5.625 -11.203125 C 6.144531 -11.203125 6.617188 -11.125 7.046875 -10.96875 C 7.484375 -10.8125 7.867188 -10.597656 8.203125 -10.328125 C 8.535156 -10.066406 8.816406 -9.757812 9.046875 -9.40625 C 9.285156 -9.050781 9.457031 -8.675781 9.5625 -8.28125 L 8.875 -8.359375 L 8.875 -10.96875 L 12.171875 -10.96875 L 12.171875 0 L 8.8125 0 L 8.8125 -2.640625 L 9.5625 -2.671875 C 9.457031 -2.285156 9.28125 -1.914062 9.03125 -1.5625 C 8.78125 -1.21875 8.472656 -0.914062 8.109375 -0.65625 C 7.753906 -0.394531 7.359375 -0.1875 6.921875 -0.03125 C 6.484375 0.113281 6.015625 0.1875 5.515625 0.1875 Z M 6.421875 -2.609375 C 6.929688 -2.609375 7.367188 -2.722656 7.734375 -2.953125 C 8.109375 -3.191406 8.398438 -3.523438 8.609375 -3.953125 C 8.816406 -4.390625 8.921875 -4.90625 8.921875 -5.5 C 8.921875 -6.082031 8.816406 -6.59375 8.609375 -7.03125 C 8.398438 -7.46875 8.109375 -7.804688 7.734375 -8.046875 C 7.367188 -8.285156 6.929688 -8.40625 6.421875 -8.40625 C 5.929688 -8.40625 5.5 -8.285156 5.125 -8.046875 C 4.757812 -7.804688 4.472656 -7.46875 4.265625 -7.03125 C 4.066406 -6.59375 3.96875 -6.082031 3.96875 -5.5 C 3.96875 -4.90625 4.066406 -4.390625 4.265625 -3.953125 C 4.472656 -3.523438 4.757812 -3.191406 5.125 -2.953125 C 5.5 -2.722656 5.929688 -2.609375 6.421875 -2.609375 Z M 6.421875 -2.609375 "/>
</g>
<g id="glyph-1-4">
<path d="M 1.46875 0 L 1.46875 -10.96875 L 4.609375 -10.96875 L 4.75 -7.390625 L 4.125 -8.078125 C 4.289062 -8.671875 4.5625 -9.203125 4.9375 -9.671875 C 5.320312 -10.140625 5.769531 -10.507812 6.28125 -10.78125 C 6.789062 -11.0625 7.332031 -11.203125 7.90625 -11.203125 C 8.15625 -11.203125 8.382812 -11.179688 8.59375 -11.140625 C 8.8125 -11.097656 9.007812 -11.046875 9.1875 -10.984375 L 8.28125 -7.328125 C 8.132812 -7.429688 7.929688 -7.507812 7.671875 -7.5625 C 7.421875 -7.625 7.15625 -7.65625 6.875 -7.65625 C 6.570312 -7.65625 6.289062 -7.601562 6.03125 -7.5 C 5.769531 -7.40625 5.550781 -7.257812 5.375 -7.0625 C 5.195312 -6.875 5.054688 -6.644531 4.953125 -6.375 C 4.847656 -6.113281 4.796875 -5.820312 4.796875 -5.5 L 4.796875 0 Z M 1.46875 0 "/>
</g>
<g id="glyph-1-5">
<path d="M 6.28125 0.203125 C 5.21875 0.203125 4.265625 -0.0390625 3.421875 -0.53125 C 2.585938 -1.03125 1.925781 -1.707031 1.4375 -2.5625 C 0.945312 -3.425781 0.703125 -4.40625 0.703125 -5.5 C 0.703125 -6.582031 0.945312 -7.550781 1.4375 -8.40625 C 1.925781 -9.269531 2.585938 -9.953125 3.421875 -10.453125 C 4.265625 -10.953125 5.21875 -11.203125 6.28125 -11.203125 C 7.257812 -11.203125 8.15625 -11.023438 8.96875 -10.671875 C 9.789062 -10.328125 10.441406 -9.847656 10.921875 -9.234375 L 9.125 -7.078125 C 8.9375 -7.304688 8.710938 -7.515625 8.453125 -7.703125 C 8.191406 -7.898438 7.898438 -8.050781 7.578125 -8.15625 C 7.265625 -8.269531 6.9375 -8.328125 6.59375 -8.328125 C 6.0625 -8.328125 5.597656 -8.203125 5.203125 -7.953125 C 4.804688 -7.710938 4.5 -7.378906 4.28125 -6.953125 C 4.0625 -6.535156 3.953125 -6.050781 3.953125 -5.5 C 3.953125 -4.96875 4.0625 -4.488281 4.28125 -4.0625 C 4.507812 -3.632812 4.820312 -3.296875 5.21875 -3.046875 C 5.625 -2.804688 6.082031 -2.6875 6.59375 -2.6875 C 6.945312 -2.6875 7.273438 -2.726562 7.578125 -2.8125 C 7.878906 -2.90625 8.15625 -3.039062 8.40625 -3.21875 C 8.664062 -3.394531 8.90625 -3.617188 9.125 -3.890625 L 10.90625 -1.71875 C 10.4375 -1.125 9.785156 -0.65625 8.953125 -0.3125 C 8.117188 0.0273438 7.226562 0.203125 6.28125 0.203125 Z M 6.28125 0.203125 "/>
</g>
<g id="glyph-1-6">
<path d="M 1.46875 0 L 1.46875 -15.28125 L 4.703125 -15.28125 L 4.703125 -8.734375 L 4.046875 -8.484375 C 4.203125 -8.984375 4.472656 -9.4375 4.859375 -9.84375 C 5.253906 -10.25 5.726562 -10.578125 6.28125 -10.828125 C 6.832031 -11.078125 7.410156 -11.203125 8.015625 -11.203125 C 8.835938 -11.203125 9.53125 -11.03125 10.09375 -10.6875 C 10.664062 -10.351562 11.09375 -9.851562 11.375 -9.1875 C 11.664062 -8.519531 11.8125 -7.703125 11.8125 -6.734375 L 11.8125 0 L 8.484375 0 L 8.484375 -6.46875 C 8.484375 -6.90625 8.421875 -7.269531 8.296875 -7.5625 C 8.179688 -7.851562 7.992188 -8.066406 7.734375 -8.203125 C 7.484375 -8.347656 7.171875 -8.414062 6.796875 -8.40625 C 6.503906 -8.40625 6.234375 -8.359375 5.984375 -8.265625 C 5.742188 -8.179688 5.53125 -8.050781 5.34375 -7.875 C 5.164062 -7.707031 5.023438 -7.515625 4.921875 -7.296875 C 4.816406 -7.078125 4.765625 -6.832031 4.765625 -6.5625 L 4.765625 0 L 3.140625 0 C 2.753906 0 2.421875 0 2.140625 0 C 1.867188 0 1.644531 0 1.46875 0 Z M 1.46875 0 "/>
</g>
<g id="glyph-1-7">
<path d="M 12.703125 2.265625 L 7.171875 -5.21875 L 9.75 -7.015625 L 15.21875 0.40625 Z M 8.390625 0.203125 C 7.296875 0.203125 6.296875 0.0195312 5.390625 -0.34375 C 4.484375 -0.71875 3.691406 -1.242188 3.015625 -1.921875 C 2.335938 -2.597656 1.8125 -3.390625 1.4375 -4.296875 C 1.070312 -5.203125 0.890625 -6.203125 0.890625 -7.296875 C 0.890625 -8.378906 1.070312 -9.375 1.4375 -10.28125 C 1.8125 -11.195312 2.335938 -11.988281 3.015625 -12.65625 C 3.691406 -13.332031 4.484375 -13.859375 5.390625 -14.234375 C 6.296875 -14.609375 7.296875 -14.796875 8.390625 -14.796875 C 9.472656 -14.796875 10.46875 -14.609375 11.375 -14.234375 C 12.289062 -13.859375 13.082031 -13.332031 13.75 -12.65625 C 14.425781 -11.988281 14.945312 -11.195312 15.3125 -10.28125 C 15.675781 -9.375 15.859375 -8.378906 15.859375 -7.296875 C 15.859375 -6.222656 15.675781 -5.226562 15.3125 -4.3125 C 14.945312 -3.394531 14.425781 -2.597656 13.75 -1.921875 C 13.082031 -1.242188 12.289062 -0.71875 11.375 -0.34375 C 10.46875 0.0195312 9.472656 0.203125 8.390625 0.203125 Z M 8.390625 -3.09375 C 8.953125 -3.09375 9.46875 -3.195312 9.9375 -3.40625 C 10.414062 -3.613281 10.832031 -3.90625 11.1875 -4.28125 C 11.539062 -4.664062 11.8125 -5.109375 12 -5.609375 C 12.195312 -6.117188 12.296875 -6.679688 12.296875 -7.296875 C 12.296875 -7.898438 12.195312 -8.457031 12 -8.96875 C 11.8125 -9.476562 11.539062 -9.921875 11.1875 -10.296875 C 10.832031 -10.671875 10.414062 -10.960938 9.9375 -11.171875 C 9.46875 -11.378906 8.953125 -11.484375 8.390625 -11.484375 C 7.828125 -11.484375 7.304688 -11.378906 6.828125 -11.171875 C 6.347656 -10.960938 5.929688 -10.671875 5.578125 -10.296875 C 5.222656 -9.921875 4.953125 -9.476562 4.765625 -8.96875 C 4.578125 -8.457031 4.484375 -7.898438 4.484375 -7.296875 C 4.484375 -6.679688 4.578125 -6.113281 4.765625 -5.59375 C 4.953125 -5.082031 5.222656 -4.640625 5.578125 -4.265625 C 5.929688 -3.898438 6.347656 -3.613281 6.828125 -3.40625 C 7.304688 -3.195312 7.828125 -3.09375 8.390625 -3.09375 Z M 8.390625 -3.09375 "/>
</g>
<g id="glyph-1-8">
<path d="M 5.203125 0.234375 C 4.390625 0.234375 3.695312 0.0546875 3.125 -0.296875 C 2.550781 -0.648438 2.109375 -1.15625 1.796875 -1.8125 C 1.492188 -2.476562 1.34375 -3.269531 1.34375 -4.1875 L 1.34375 -10.96875 L 4.671875 -10.96875 L 4.671875 -4.640625 C 4.671875 -4.203125 4.738281 -3.820312 4.875 -3.5 C 5.007812 -3.1875 5.210938 -2.941406 5.484375 -2.765625 C 5.765625 -2.597656 6.097656 -2.515625 6.484375 -2.515625 C 6.773438 -2.515625 7.039062 -2.5625 7.28125 -2.65625 C 7.519531 -2.757812 7.722656 -2.894531 7.890625 -3.0625 C 8.066406 -3.238281 8.203125 -3.4375 8.296875 -3.65625 C 8.398438 -3.882812 8.453125 -4.140625 8.453125 -4.421875 L 8.453125 -10.96875 L 11.78125 -10.96875 L 11.78125 0 L 8.65625 0 L 8.515625 -2.25 L 9.125 -2.5 C 8.957031 -1.976562 8.679688 -1.515625 8.296875 -1.109375 C 7.910156 -0.703125 7.445312 -0.375 6.90625 -0.125 C 6.375 0.113281 5.804688 0.234375 5.203125 0.234375 Z M 5.203125 0.234375 "/>
</g>
<g id="glyph-1-9">
<path d="M 2.375 0 L 2.375 -13.734375 L 5.6875 -13.734375 L 5.6875 0 Z M 0.4375 -8.078125 L 0.4375 -10.96875 L 7.8125 -10.96875 L 7.8125 -8.078125 Z M 0.4375 -8.078125 "/>
</g>
<g id="glyph-1-10">
<path d="M 1.65625 0 L 1.65625 -10.96875 L 4.953125 -10.96875 L 4.953125 0 Z M 3.3125 -13.140625 C 2.6875 -13.140625 2.195312 -13.285156 1.84375 -13.578125 C 1.5 -13.878906 1.328125 -14.304688 1.328125 -14.859375 C 1.328125 -15.347656 1.503906 -15.75 1.859375 -16.0625 C 2.210938 -16.382812 2.695312 -16.546875 3.3125 -16.546875 C 3.925781 -16.546875 4.40625 -16.394531 4.75 -16.09375 C 5.09375 -15.800781 5.265625 -15.390625 5.265625 -14.859375 C 5.265625 -14.347656 5.085938 -13.929688 4.734375 -13.609375 C 4.390625 -13.296875 3.914062 -13.140625 3.3125 -13.140625 Z M 3.3125 -13.140625 "/>
</g>
<g id="glyph-1-11">
<path d="M 6.625 0.203125 C 5.488281 0.203125 4.472656 -0.0390625 3.578125 -0.53125 C 2.691406 -1.03125 1.988281 -1.707031 1.46875 -2.5625 C 0.957031 -3.414062 0.703125 -4.394531 0.703125 -5.5 C 0.703125 -6.59375 0.957031 -7.566406 1.46875 -8.421875 C 1.988281 -9.273438 2.691406 -9.953125 3.578125 -10.453125 C 4.472656 -10.953125 5.488281 -11.203125 6.625 -11.203125 C 7.769531 -11.203125 8.785156 -10.953125 9.671875 -10.453125 C 10.566406 -9.953125 11.265625 -9.273438 11.765625 -8.421875 C 12.273438 -7.566406 12.53125 -6.59375 12.53125 -5.5 C 12.53125 -4.394531 12.273438 -3.414062 11.765625 -2.5625 C 11.265625 -1.707031 10.566406 -1.03125 9.671875 -0.53125 C 8.785156 -0.0390625 7.769531 0.203125 6.625 0.203125 Z M 6.625 -2.640625 C 7.125 -2.640625 7.566406 -2.765625 7.953125 -3.015625 C 8.335938 -3.265625 8.640625 -3.601562 8.859375 -4.03125 C 9.078125 -4.457031 9.179688 -4.945312 9.171875 -5.5 C 9.179688 -6.050781 9.078125 -6.539062 8.859375 -6.96875 C 8.640625 -7.40625 8.335938 -7.742188 7.953125 -7.984375 C 7.566406 -8.234375 7.125 -8.359375 6.625 -8.359375 C 6.132812 -8.359375 5.691406 -8.234375 5.296875 -7.984375 C 4.898438 -7.742188 4.59375 -7.40625 4.375 -6.96875 C 4.15625 -6.539062 4.050781 -6.050781 4.0625 -5.5 C 4.050781 -4.945312 4.15625 -4.457031 4.375 -4.03125 C 4.59375 -3.601562 4.898438 -3.265625 5.296875 -3.015625 C 5.691406 -2.765625 6.132812 -2.640625 6.625 -2.640625 Z M 6.625 -2.640625 "/>
</g>
<g id="glyph-1-12">
<path d="M 1.46875 0 L 1.46875 -10.96875 L 4.609375 -10.96875 L 4.703125 -8.734375 L 4.046875 -8.484375 C 4.203125 -8.984375 4.472656 -9.4375 4.859375 -9.84375 C 5.253906 -10.25 5.726562 -10.578125 6.28125 -10.828125 C 6.832031 -11.078125 7.410156 -11.203125 8.015625 -11.203125 C 8.835938 -11.203125 9.53125 -11.03125 10.09375 -10.6875 C 10.664062 -10.351562 11.09375 -9.851562 11.375 -9.1875 C 11.664062 -8.519531 11.8125 -7.703125 11.8125 -6.734375 L 11.8125 0 L 8.484375 0 L 8.484375 -6.46875 C 8.484375 -6.90625 8.421875 -7.269531 8.296875 -7.5625 C 8.179688 -7.851562 7.992188 -8.066406 7.734375 -8.203125 C 7.484375 -8.347656 7.171875 -8.414062 6.796875 -8.40625 C 6.503906 -8.40625 6.234375 -8.359375 5.984375 -8.265625 C 5.742188 -8.179688 5.53125 -8.050781 5.34375 -7.875 C 5.164062 -7.707031 5.023438 -7.515625 4.921875 -7.296875 C 4.816406 -7.078125 4.765625 -6.832031 4.765625 -6.5625 L 4.765625 0 L 3.140625 0 C 2.753906 0 2.421875 0 2.140625 0 C 1.867188 0 1.644531 0 1.46875 0 Z M 1.46875 0 "/>
</g>
</g>
<clipPath id="clip-0">
<path clip-rule="nonzero" d="M 17 0 L 290 0 L 290 226.300781 L 17 226.300781 Z M 17 0 "/>
</clipPath>
<clipPath id="clip-1">
<path clip-rule="nonzero" d="M 17 84 L 206 84 L 206 226.300781 L 17 226.300781 Z M 17 84 "/>
</clipPath>
<clipPath id="clip-2">
<path clip-rule="nonzero" d="M 53 136 L 148 136 L 148 226.300781 L 53 226.300781 Z M 53 136 "/>
</clipPath>
<clipPath id="clip-3">
<path clip-rule="nonzero" d="M 101 84 L 290 84 L 290 226.300781 L 101 226.300781 Z M 101 84 "/>
</clipPath>
<clipPath id="clip-4">
<path clip-rule="nonzero" d="M 160 136 L 255 136 L 255 226.300781 L 160 226.300781 Z M 160 136 "/>
</clipPath>
</defs>
<g clip-path="url(#clip-0)">
<path fill="none" stroke-width="1.79329" stroke-linecap="butt" stroke-linejoin="miter" stroke="rgb(89.802551%, 46.665955%, 14.901733%)" stroke-opacity="1" stroke-miterlimit="10" d="M -0.00078125 127.562062 L -110.469531 -63.781688 L 110.471875 -63.781688 Z M -0.00078125 127.562062 " transform="matrix(1, 0, 0, -1, 153.7, 146.273)"/>
</g>
<path fill-rule="nonzero" fill="rgb(54.116821%, 11.764526%, 0%)" fill-opacity="1" d="M 114.015625 31.847656 L 193.386719 31.847656 L 193.386719 1.992188 L 114.015625 1.992188 Z M 114.015625 31.847656 "/>
<g fill="rgb(88.233948%, 88.627625%, 91.764832%)" fill-opacity="1">
<use xlink:href="#glyph-0-0" x="127.935" y="20.579"/>
<use xlink:href="#glyph-0-1" x="137.331761" y="20.579"/>
<use xlink:href="#glyph-0-2" x="146.441598" y="20.579"/>
<use xlink:href="#glyph-0-3" x="154.848471" y="20.579"/>
<use xlink:href="#glyph-0-4" x="164.044385" y="20.579"/>
<use xlink:href="#glyph-0-5" x="170.571906" y="20.579"/>
</g>
<path fill-rule="nonzero" fill="rgb(54.116821%, 11.764526%, 0%)" fill-opacity="1" d="M 1.992188 224.308594 L 81.363281 224.308594 L 81.363281 197.59375 L 1.992188 197.59375 Z M 1.992188 224.308594 "/>
<g fill="rgb(88.233948%, 88.627625%, 91.764832%)" fill-opacity="1">
<use xlink:href="#glyph-0-6" x="14.477" y="216.179"/>
<use xlink:href="#glyph-0-2" x="27.072964" y="216.179"/>
<use xlink:href="#glyph-0-7" x="35.479837" y="216.179"/>
<use xlink:href="#glyph-0-1" x="41.189624" y="216.179"/>
<use xlink:href="#glyph-0-3" x="50.299461" y="216.179"/>
<use xlink:href="#glyph-0-8" x="59.495376" y="216.179"/>
</g>
<path fill-rule="nonzero" fill="rgb(54.116821%, 11.764526%, 0%)" fill-opacity="1" d="M 226.039062 224.007812 L 305.410156 224.007812 L 305.410156 197.894531 L 226.039062 197.894531 Z M 226.039062 224.007812 "/>
<g fill="rgb(88.233948%, 88.627625%, 91.764832%)" fill-opacity="1">
<use xlink:href="#glyph-0-9" x="247.912" y="215.906"/>
<use xlink:href="#glyph-0-10" x="258.987266" y="215.906"/>
<use xlink:href="#glyph-0-7" x="268.441412" y="215.906"/>
</g>
<g fill="rgb(88.233948%, 88.627625%, 91.764832%)" fill-opacity="1">
<use xlink:href="#glyph-0-10" x="274.079469" y="215.906"/>
</g>
<g fill="rgb(54.116821%, 11.764526%, 0%)" fill-opacity="1">
<use xlink:href="#glyph-1-0" x="105.96" y="128.99"/>
</g>
<g fill="rgb(54.116821%, 11.764526%, 0%)" fill-opacity="1">
<use xlink:href="#glyph-1-1" x="120.051839" y="128.99"/>
<use xlink:href="#glyph-1-2" x="132.160075" y="128.99"/>
<use xlink:href="#glyph-1-1" x="142.388023" y="128.99"/>
<use xlink:href="#glyph-1-3" x="154.496259" y="128.99"/>
<use xlink:href="#glyph-1-4" x="168.11286" y="128.99"/>
</g>
<g fill="rgb(54.116821%, 11.764526%, 0%)" fill-opacity="1">
<use xlink:href="#glyph-1-5" x="177.059731" y="128.99"/>
<use xlink:href="#glyph-1-6" x="188.320805" y="128.99"/>
</g>
<g fill="rgb(54.116821%, 11.764526%, 0%)" fill-opacity="1">
<use xlink:href="#glyph-1-7" x="106.92" y="153.897"/>
<use xlink:href="#glyph-1-8" x="123.697966" y="153.897"/>
<use xlink:href="#glyph-1-1" x="136.963304" y="153.897"/>
<use xlink:href="#glyph-1-2" x="149.071541" y="153.897"/>
<use xlink:href="#glyph-1-9" x="159.299488" y="153.897"/>
<use xlink:href="#glyph-1-10" x="167.523171" y="153.897"/>
<use xlink:href="#glyph-1-11" x="174.114515" y="153.897"/>
<use xlink:href="#glyph-1-12" x="187.35919" y="153.897"/>
</g>
<path fill="none" stroke-width="5.97766" stroke-linecap="butt" stroke-linejoin="miter" stroke="rgb(54.116821%, 11.764526%, 0%)" stroke-opacity="1" stroke-miterlimit="10" d="M -0.00078125 39.687062 L -0.00078125 62.495656 " transform="matrix(1, 0, 0, -1, 153.7, 146.273)"/>
<path fill-rule="nonzero" fill="rgb(54.116821%, 11.764526%, 0%)" fill-opacity="1" stroke-width="2.98883" stroke-linecap="butt" stroke-linejoin="miter" stroke="rgb(54.116821%, 11.764526%, 0%)" stroke-opacity="1" stroke-miterlimit="10" d="M 9.135835 0.00078125 L 1.49521 5.114062 L 1.49521 -5.1125 Z M 9.135835 0.00078125 " transform="matrix(0, -1, -1, 0, 153.7, 84.52646)"/>
<g clip-path="url(#clip-1)">
<path fill="none" stroke-width="5.97766" stroke-linecap="butt" stroke-linejoin="miter" stroke="rgb(54.116821%, 11.764526%, 0%)" stroke-opacity="1" stroke-miterlimit="10" d="M -32.508594 -22.762156 L -51.192187 -35.844188 " transform="matrix(1, 0, 0, -1, 153.7, 146.273)"/>
</g>
<path fill-rule="nonzero" fill="rgb(54.116821%, 11.764526%, 0%)" fill-opacity="1" d="M 95.636719 186.929688 L 104.828125 186.734375 L 101.894531 182.546875 L 98.964844 178.359375 Z M 95.636719 186.929688 "/>
<g clip-path="url(#clip-2)">
<path fill="none" stroke-width="2.98883" stroke-linecap="butt" stroke-linejoin="miter" stroke="rgb(54.116821%, 11.764526%, 0%)" stroke-opacity="1" stroke-miterlimit="10" d="M 9.135973 0.000156966 L 1.494607 5.112189 L 1.495848 -0.000749163 L 1.49389 -5.111447 Z M 9.135973 0.000156966 " transform="matrix(-0.81914, 0.57356, 0.57356, 0.81914, 103.12027, 181.68953)"/>
</g>
<g clip-path="url(#clip-3)">
<path fill="none" stroke-width="5.97766" stroke-linecap="butt" stroke-linejoin="miter" stroke="rgb(54.116821%, 11.764526%, 0%)" stroke-opacity="1" stroke-miterlimit="10" d="M 32.507031 -22.762156 L 51.190625 -35.844188 " transform="matrix(1, 0, 0, -1, 153.7, 146.273)"/>
</g>
<path fill-rule="nonzero" fill="rgb(54.116821%, 11.764526%, 0%)" fill-opacity="1" d="M 211.761719 186.929688 L 208.4375 178.359375 L 202.570312 186.734375 Z M 211.761719 186.929688 "/>
<g clip-path="url(#clip-4)">
<path fill="none" stroke-width="2.98883" stroke-linecap="butt" stroke-linejoin="miter" stroke="rgb(54.116821%, 11.764526%, 0%)" stroke-opacity="1" stroke-miterlimit="10" d="M 9.134693 -0.00105319 L 1.49581 5.112791 L 1.493327 -5.113085 Z M 9.134693 -0.00105319 " transform="matrix(0.81914, 0.57356, 0.57356, -0.81914, 204.27973, 181.68953)"/>
</g>
</svg>
